<mxfile host="65bd71144e" pages="1">
    <diagram id="xTSmVuLPTdDSwzOR9OK0" name="Page-1">
        <mxGraphModel dx="1066" dy="705" grid="1" gridSize="10" guides="1" tooltips="1" connect="1" arrows="1" fold="1" page="1" pageScale="1" pageWidth="880" pageHeight="640" math="0" shadow="0">
            <root>
                <mxCell id="0"/>
                <mxCell id="1" parent="0"/>
                <mxCell id="Ts5cmgJI-xwkf2jEvHbf-10" value="&lt;b&gt;Plug&lt;/b&gt;" style="swimlane;fontStyle=0;align=center;verticalAlign=top;childLayout=stackLayout;horizontal=1;startSize=30;horizontalStack=0;resizeParent=1;resizeParentMax=0;resizeLast=0;collapsible=0;marginBottom=0;html=1;sketch=1;rounded=1;" parent="1" vertex="1">
                    <mxGeometry x="600" y="60" width="240" height="398" as="geometry"/>
                </mxCell>
                <mxCell id="Ts5cmgJI-xwkf2jEvHbf-11" value="attributes" style="text;html=1;strokeColor=none;fillColor=none;align=center;verticalAlign=middle;spacingLeft=4;spacingRight=4;overflow=hidden;rotatable=0;points=[[0,0.5],[1,0.5]];portConstraint=eastwest;sketch=1;rounded=1;" parent="Ts5cmgJI-xwkf2jEvHbf-10" vertex="1">
                    <mxGeometry y="30" width="240" height="20" as="geometry"/>
                </mxCell>
                <mxCell id="Ts5cmgJI-xwkf2jEvHbf-52" value="*name" style="text;html=1;strokeColor=none;fillColor=none;align=left;verticalAlign=middle;spacingLeft=4;spacingRight=4;overflow=hidden;rotatable=0;points=[[0,0.5],[1,0.5]];portConstraint=eastwest;sketch=1;rounded=1;" parent="Ts5cmgJI-xwkf2jEvHbf-10" vertex="1">
                    <mxGeometry y="50" width="240" height="20" as="geometry"/>
                </mxCell>
                <mxCell id="Ts5cmgJI-xwkf2jEvHbf-63" value="namespace" style="text;html=1;strokeColor=none;fillColor=none;align=left;verticalAlign=middle;spacingLeft=4;spacingRight=4;overflow=hidden;rotatable=0;points=[[0,0.5],[1,0.5]];portConstraint=eastwest;sketch=1;rounded=1;" parent="Ts5cmgJI-xwkf2jEvHbf-10" vertex="1">
                    <mxGeometry y="70" width="240" height="20" as="geometry"/>
                </mxCell>
                <mxCell id="Ts5cmgJI-xwkf2jEvHbf-77" value="*socket (socket to plug into)" style="text;html=1;strokeColor=none;fillColor=none;align=left;verticalAlign=middle;spacingLeft=4;spacingRight=4;overflow=hidden;rotatable=0;points=[[0,0.5],[1,0.5]];portConstraint=eastwest;sketch=1;rounded=1;" parent="Ts5cmgJI-xwkf2jEvHbf-10" vertex="1">
                    <mxGeometry y="90" width="240" height="20" as="geometry"/>
                </mxCell>
                <mxCell id="Ts5cmgJI-xwkf2jEvHbf-12" value="*interface (required interface)" style="text;html=1;strokeColor=none;fillColor=none;align=left;verticalAlign=middle;spacingLeft=4;spacingRight=4;overflow=hidden;rotatable=0;points=[[0,0.5],[1,0.5]];portConstraint=eastwest;sketch=1;rounded=1;" parent="Ts5cmgJI-xwkf2jEvHbf-10" vertex="1">
                    <mxGeometry y="110" width="240" height="20" as="geometry"/>
                </mxCell>
                <mxCell id="Ts5cmgJI-xwkf2jEvHbf-66" value="interface_versions" style="text;html=1;strokeColor=none;fillColor=none;align=left;verticalAlign=middle;spacingLeft=4;spacingRight=4;overflow=hidden;rotatable=0;points=[[0,0.5],[1,0.5]];portConstraint=eastwest;sketch=1;rounded=1;" parent="Ts5cmgJI-xwkf2jEvHbf-10" vertex="1">
                    <mxGeometry y="130" width="240" height="20" as="geometry"/>
                </mxCell>
                <mxCell id="Ts5cmgJI-xwkf2jEvHbf-79" value="vars (based on kustomize vars)" style="text;html=1;strokeColor=none;fillColor=none;align=left;verticalAlign=middle;spacingLeft=4;spacingRight=4;overflow=hidden;rotatable=0;points=[[0,0.5],[1,0.5]];portConstraint=eastwest;sketch=1;rounded=1;" parent="Ts5cmgJI-xwkf2jEvHbf-10" vertex="1">
                    <mxGeometry y="150" width="240" height="20" as="geometry"/>
                </mxCell>
                <mxCell id="7" value="data" style="text;html=1;strokeColor=none;fillColor=none;align=left;verticalAlign=middle;spacingLeft=4;spacingRight=4;overflow=hidden;rotatable=0;points=[[0,0.5],[1,0.5]];portConstraint=eastwest;sketch=1;rounded=1;" vertex="1" parent="Ts5cmgJI-xwkf2jEvHbf-10">
                    <mxGeometry y="170" width="240" height="20" as="geometry"/>
                </mxCell>
                <mxCell id="Ts5cmgJI-xwkf2jEvHbf-80" value="config" style="text;html=1;strokeColor=none;fillColor=none;align=left;verticalAlign=middle;spacingLeft=4;spacingRight=4;overflow=hidden;rotatable=0;points=[[0,0.5],[1,0.5]];portConstraint=eastwest;sketch=1;rounded=1;" parent="Ts5cmgJI-xwkf2jEvHbf-10" vertex="1">
                    <mxGeometry y="190" width="240" height="20" as="geometry"/>
                </mxCell>
                <mxCell id="Ts5cmgJI-xwkf2jEvHbf-97" value="apparatus" style="text;html=1;strokeColor=none;fillColor=none;align=left;verticalAlign=middle;spacingLeft=4;spacingRight=4;overflow=hidden;rotatable=0;points=[[0,0.5],[1,0.5]];portConstraint=eastwest;sketch=1;rounded=1;" parent="Ts5cmgJI-xwkf2jEvHbf-10" vertex="1">
                    <mxGeometry y="210" width="240" height="20" as="geometry"/>
                </mxCell>
                <mxCell id="Ts5cmgJI-xwkf2jEvHbf-104" value="resources" style="text;html=1;strokeColor=none;fillColor=none;align=left;verticalAlign=middle;spacingLeft=4;spacingRight=4;overflow=hidden;rotatable=0;points=[[0,0.5],[1,0.5]];portConstraint=eastwest;sketch=1;rounded=1;" parent="Ts5cmgJI-xwkf2jEvHbf-10" vertex="1">
                    <mxGeometry y="230" width="240" height="20" as="geometry"/>
                </mxCell>
                <mxCell id="Ts5cmgJI-xwkf2jEvHbf-15" value="" style="line;strokeWidth=1;fillColor=none;align=left;verticalAlign=middle;spacingTop=-1;spacingLeft=3;spacingRight=3;rotatable=0;labelPosition=right;points=[];portConstraint=eastwest;sketch=1;rounded=1;" parent="Ts5cmgJI-xwkf2jEvHbf-10" vertex="1">
                    <mxGeometry y="250" width="240" height="8" as="geometry"/>
                </mxCell>
                <mxCell id="Ts5cmgJI-xwkf2jEvHbf-16" value="events" style="text;html=1;strokeColor=none;fillColor=none;align=center;verticalAlign=middle;spacingLeft=4;spacingRight=4;overflow=hidden;rotatable=0;points=[[0,0.5],[1,0.5]];portConstraint=eastwest;sketch=1;rounded=1;" parent="Ts5cmgJI-xwkf2jEvHbf-10" vertex="1">
                    <mxGeometry y="258" width="240" height="20" as="geometry"/>
                </mxCell>
                <mxCell id="Ts5cmgJI-xwkf2jEvHbf-17" value="config(plug)" style="text;html=1;strokeColor=none;fillColor=none;align=left;verticalAlign=middle;spacingLeft=4;spacingRight=4;overflow=hidden;rotatable=0;points=[[0,0.5],[1,0.5]];portConstraint=eastwest;sketch=1;rounded=1;" parent="Ts5cmgJI-xwkf2jEvHbf-10" vertex="1">
                    <mxGeometry y="278" width="240" height="20" as="geometry"/>
                </mxCell>
                <mxCell id="Ts5cmgJI-xwkf2jEvHbf-117" value="created(plug, socket)" style="text;html=1;strokeColor=none;fillColor=none;align=left;verticalAlign=middle;spacingLeft=4;spacingRight=4;overflow=hidden;rotatable=0;points=[[0,0.5],[1,0.5]];portConstraint=eastwest;sketch=1;rounded=1;" parent="Ts5cmgJI-xwkf2jEvHbf-10" vertex="1">
                    <mxGeometry y="298" width="240" height="20" as="geometry"/>
                </mxCell>
                <mxCell id="Ts5cmgJI-xwkf2jEvHbf-100" value="coupled(plug, socket)" style="text;html=1;strokeColor=none;fillColor=none;align=left;verticalAlign=middle;spacingLeft=4;spacingRight=4;overflow=hidden;rotatable=0;points=[[0,0.5],[1,0.5]];portConstraint=eastwest;sketch=1;rounded=1;" parent="Ts5cmgJI-xwkf2jEvHbf-10" vertex="1">
                    <mxGeometry y="318" width="240" height="20" as="geometry"/>
                </mxCell>
                <mxCell id="Ts5cmgJI-xwkf2jEvHbf-54" value="updated(plug, socket)" style="text;html=1;strokeColor=none;fillColor=none;align=left;verticalAlign=middle;spacingLeft=4;spacingRight=4;overflow=hidden;rotatable=0;points=[[0,0.5],[1,0.5]];portConstraint=eastwest;sketch=1;rounded=1;" parent="Ts5cmgJI-xwkf2jEvHbf-10" vertex="1">
                    <mxGeometry y="338" width="240" height="20" as="geometry"/>
                </mxCell>
                <mxCell id="Ts5cmgJI-xwkf2jEvHbf-55" value="decoupled(plug)" style="text;html=1;strokeColor=none;fillColor=none;align=left;verticalAlign=middle;spacingLeft=4;spacingRight=4;overflow=hidden;rotatable=0;points=[[0,0.5],[1,0.5]];portConstraint=eastwest;sketch=1;rounded=1;" parent="Ts5cmgJI-xwkf2jEvHbf-10" vertex="1">
                    <mxGeometry y="358" width="240" height="20" as="geometry"/>
                </mxCell>
                <mxCell id="Ts5cmgJI-xwkf2jEvHbf-102" value="deleted(plug)" style="text;html=1;strokeColor=none;fillColor=none;align=left;verticalAlign=middle;spacingLeft=4;spacingRight=4;overflow=hidden;rotatable=0;points=[[0,0.5],[1,0.5]];portConstraint=eastwest;sketch=1;rounded=1;" parent="Ts5cmgJI-xwkf2jEvHbf-10" vertex="1">
                    <mxGeometry y="378" width="240" height="20" as="geometry"/>
                </mxCell>
                <mxCell id="Ts5cmgJI-xwkf2jEvHbf-26" value="&lt;b&gt;Socket&lt;br&gt;&lt;/b&gt;" style="swimlane;fontStyle=0;align=center;verticalAlign=top;childLayout=stackLayout;horizontal=1;startSize=30;horizontalStack=0;resizeParent=1;resizeParentMax=0;resizeLast=0;collapsible=0;marginBottom=0;html=1;sketch=1;rounded=1;" parent="1" vertex="1">
                    <mxGeometry x="40" y="60" width="240" height="396" as="geometry"/>
                </mxCell>
                <mxCell id="Ts5cmgJI-xwkf2jEvHbf-27" value="attributes" style="text;html=1;strokeColor=none;fillColor=none;align=center;verticalAlign=middle;spacingLeft=4;spacingRight=4;overflow=hidden;rotatable=0;points=[[0,0.5],[1,0.5]];portConstraint=eastwest;sketch=1;rounded=1;" parent="Ts5cmgJI-xwkf2jEvHbf-26" vertex="1">
                    <mxGeometry y="30" width="240" height="20" as="geometry"/>
                </mxCell>
                <mxCell id="Ts5cmgJI-xwkf2jEvHbf-51" value="*name" style="text;html=1;strokeColor=none;fillColor=none;align=left;verticalAlign=middle;spacingLeft=4;spacingRight=4;overflow=hidden;rotatable=0;points=[[0,0.5],[1,0.5]];portConstraint=eastwest;sketch=1;rounded=1;" parent="Ts5cmgJI-xwkf2jEvHbf-26" vertex="1">
                    <mxGeometry y="50" width="240" height="20" as="geometry"/>
                </mxCell>
                <mxCell id="Ts5cmgJI-xwkf2jEvHbf-62" value="namespace" style="text;html=1;strokeColor=none;fillColor=none;align=left;verticalAlign=middle;spacingLeft=4;spacingRight=4;overflow=hidden;rotatable=0;points=[[0,0.5],[1,0.5]];portConstraint=eastwest;sketch=1;rounded=1;" parent="Ts5cmgJI-xwkf2jEvHbf-26" vertex="1">
                    <mxGeometry y="70" width="240" height="20" as="geometry"/>
                </mxCell>
                <mxCell id="Ts5cmgJI-xwkf2jEvHbf-28" value="*interface (provided interface)" style="text;html=1;strokeColor=none;fillColor=none;align=left;verticalAlign=middle;spacingLeft=4;spacingRight=4;overflow=hidden;rotatable=0;points=[[0,0.5],[1,0.5]];portConstraint=eastwest;sketch=1;rounded=1;" parent="Ts5cmgJI-xwkf2jEvHbf-26" vertex="1">
                    <mxGeometry y="90" width="240" height="20" as="geometry"/>
                </mxCell>
                <mxCell id="Ts5cmgJI-xwkf2jEvHbf-65" value="interface_versions" style="text;html=1;strokeColor=none;fillColor=none;align=left;verticalAlign=middle;spacingLeft=4;spacingRight=4;overflow=hidden;rotatable=0;points=[[0,0.5],[1,0.5]];portConstraint=eastwest;sketch=1;rounded=1;" parent="Ts5cmgJI-xwkf2jEvHbf-26" vertex="1">
                    <mxGeometry y="110" width="240" height="20" as="geometry"/>
                </mxCell>
                <mxCell id="Ts5cmgJI-xwkf2jEvHbf-44" value="limit (number of connections permitted)" style="text;html=1;strokeColor=none;fillColor=none;align=left;verticalAlign=middle;spacingLeft=4;spacingRight=4;overflow=hidden;rotatable=0;points=[[0,0.5],[1,0.5]];portConstraint=eastwest;sketch=1;rounded=1;" parent="Ts5cmgJI-xwkf2jEvHbf-26" vertex="1">
                    <mxGeometry y="130" width="240" height="20" as="geometry"/>
                </mxCell>
                <mxCell id="Ts5cmgJI-xwkf2jEvHbf-90" value="vars (based on kustomize vars)" style="text;html=1;strokeColor=none;fillColor=none;align=left;verticalAlign=middle;spacingLeft=4;spacingRight=4;overflow=hidden;rotatable=0;points=[[0,0.5],[1,0.5]];portConstraint=eastwest;sketch=1;rounded=1;" parent="Ts5cmgJI-xwkf2jEvHbf-26" vertex="1">
                    <mxGeometry y="150" width="240" height="20" as="geometry"/>
                </mxCell>
                <mxCell id="6" value="data" style="text;html=1;strokeColor=none;fillColor=none;align=left;verticalAlign=middle;spacingLeft=4;spacingRight=4;overflow=hidden;rotatable=0;points=[[0,0.5],[1,0.5]];portConstraint=eastwest;sketch=1;rounded=1;" vertex="1" parent="Ts5cmgJI-xwkf2jEvHbf-26">
                    <mxGeometry y="170" width="240" height="20" as="geometry"/>
                </mxCell>
                <mxCell id="Ts5cmgJI-xwkf2jEvHbf-89" value="config" style="text;html=1;strokeColor=none;fillColor=none;align=left;verticalAlign=middle;spacingLeft=4;spacingRight=4;overflow=hidden;rotatable=0;points=[[0,0.5],[1,0.5]];portConstraint=eastwest;sketch=1;rounded=1;" parent="Ts5cmgJI-xwkf2jEvHbf-26" vertex="1">
                    <mxGeometry y="190" width="240" height="20" as="geometry"/>
                </mxCell>
                <mxCell id="4" value="apparatus" style="text;html=1;strokeColor=none;fillColor=none;align=left;verticalAlign=middle;spacingLeft=4;spacingRight=4;overflow=hidden;rotatable=0;points=[[0,0.5],[1,0.5]];portConstraint=eastwest;sketch=1;rounded=1;" vertex="1" parent="Ts5cmgJI-xwkf2jEvHbf-26">
                    <mxGeometry y="210" width="240" height="20" as="geometry"/>
                </mxCell>
                <mxCell id="5" value="resources" style="text;html=1;strokeColor=none;fillColor=none;align=left;verticalAlign=middle;spacingLeft=4;spacingRight=4;overflow=hidden;rotatable=0;points=[[0,0.5],[1,0.5]];portConstraint=eastwest;sketch=1;rounded=1;" vertex="1" parent="Ts5cmgJI-xwkf2jEvHbf-26">
                    <mxGeometry y="230" width="240" height="20" as="geometry"/>
                </mxCell>
                <mxCell id="Ts5cmgJI-xwkf2jEvHbf-31" value="" style="line;strokeWidth=1;fillColor=none;align=left;verticalAlign=middle;spacingTop=-1;spacingLeft=3;spacingRight=3;rotatable=0;labelPosition=right;points=[];portConstraint=eastwest;sketch=1;rounded=1;" parent="Ts5cmgJI-xwkf2jEvHbf-26" vertex="1">
                    <mxGeometry y="250" width="240" height="8" as="geometry"/>
                </mxCell>
                <mxCell id="Ts5cmgJI-xwkf2jEvHbf-32" value="events" style="text;html=1;strokeColor=none;fillColor=none;align=center;verticalAlign=middle;spacingLeft=4;spacingRight=4;overflow=hidden;rotatable=0;points=[[0,0.5],[1,0.5]];portConstraint=eastwest;sketch=1;rounded=1;" parent="Ts5cmgJI-xwkf2jEvHbf-26" vertex="1">
                    <mxGeometry y="258" width="240" height="20" as="geometry"/>
                </mxCell>
                <mxCell id="8" value="config(socket)" style="text;html=1;strokeColor=none;fillColor=none;align=left;verticalAlign=middle;spacingLeft=4;spacingRight=4;overflow=hidden;rotatable=0;points=[[0,0.5],[1,0.5]];portConstraint=eastwest;sketch=1;rounded=1;" vertex="1" parent="Ts5cmgJI-xwkf2jEvHbf-26">
                    <mxGeometry y="278" width="240" height="18" as="geometry"/>
                </mxCell>
                <mxCell id="Ts5cmgJI-xwkf2jEvHbf-99" value="created(socket)" style="text;html=1;strokeColor=none;fillColor=none;align=left;verticalAlign=middle;spacingLeft=4;spacingRight=4;overflow=hidden;rotatable=0;points=[[0,0.5],[1,0.5]];portConstraint=eastwest;sketch=1;rounded=1;" parent="Ts5cmgJI-xwkf2jEvHbf-26" vertex="1">
                    <mxGeometry y="296" width="240" height="20" as="geometry"/>
                </mxCell>
                <mxCell id="Ts5cmgJI-xwkf2jEvHbf-116" value="coupled(socket, plug)" style="text;html=1;strokeColor=none;fillColor=none;align=left;verticalAlign=middle;spacingLeft=4;spacingRight=4;overflow=hidden;rotatable=0;points=[[0,0.5],[1,0.5]];portConstraint=eastwest;sketch=1;rounded=1;" parent="Ts5cmgJI-xwkf2jEvHbf-26" vertex="1">
                    <mxGeometry y="316" width="240" height="20" as="geometry"/>
                </mxCell>
                <mxCell id="Ts5cmgJI-xwkf2jEvHbf-101" value="updated(socket, plug)" style="text;html=1;strokeColor=none;fillColor=none;align=left;verticalAlign=middle;spacingLeft=4;spacingRight=4;overflow=hidden;rotatable=0;points=[[0,0.5],[1,0.5]];portConstraint=eastwest;sketch=1;rounded=1;" parent="Ts5cmgJI-xwkf2jEvHbf-26" vertex="1">
                    <mxGeometry y="336" width="240" height="20" as="geometry"/>
                </mxCell>
                <mxCell id="Ts5cmgJI-xwkf2jEvHbf-58" value="decoupled(socket, plug)" style="text;html=1;strokeColor=none;fillColor=none;align=left;verticalAlign=middle;spacingLeft=4;spacingRight=4;overflow=hidden;rotatable=0;points=[[0,0.5],[1,0.5]];portConstraint=eastwest;sketch=1;rounded=1;" parent="Ts5cmgJI-xwkf2jEvHbf-26" vertex="1">
                    <mxGeometry y="356" width="240" height="20" as="geometry"/>
                </mxCell>
                <mxCell id="Ts5cmgJI-xwkf2jEvHbf-59" value="deleted(socket)" style="text;html=1;strokeColor=none;fillColor=none;align=left;verticalAlign=middle;spacingLeft=4;spacingRight=4;overflow=hidden;rotatable=0;points=[[0,0.5],[1,0.5]];portConstraint=eastwest;sketch=1;rounded=1;" parent="Ts5cmgJI-xwkf2jEvHbf-26" vertex="1">
                    <mxGeometry y="376" width="240" height="20" as="geometry"/>
                </mxCell>
                <mxCell id="Ts5cmgJI-xwkf2jEvHbf-34" value="&lt;b&gt;Interface&lt;br&gt;&lt;/b&gt;" style="swimlane;fontStyle=0;align=center;verticalAlign=top;childLayout=stackLayout;horizontal=1;startSize=30;horizontalStack=0;resizeParent=1;resizeParentMax=0;resizeLast=0;collapsible=0;marginBottom=0;html=1;sketch=1;rounded=1;" parent="1" vertex="1">
                    <mxGeometry x="320" y="220" width="240" height="110" as="geometry"/>
                </mxCell>
                <mxCell id="Ts5cmgJI-xwkf2jEvHbf-35" value="attributes" style="text;html=1;strokeColor=none;fillColor=none;align=center;verticalAlign=middle;spacingLeft=4;spacingRight=4;overflow=hidden;rotatable=0;points=[[0,0.5],[1,0.5]];portConstraint=eastwest;sketch=1;rounded=1;" parent="Ts5cmgJI-xwkf2jEvHbf-34" vertex="1">
                    <mxGeometry y="30" width="240" height="20" as="geometry"/>
                </mxCell>
                <mxCell id="Ts5cmgJI-xwkf2jEvHbf-53" value="*name" style="text;html=1;strokeColor=none;fillColor=none;align=left;verticalAlign=middle;spacingLeft=4;spacingRight=4;overflow=hidden;rotatable=0;points=[[0,0.5],[1,0.5]];portConstraint=eastwest;sketch=1;rounded=1;" parent="Ts5cmgJI-xwkf2jEvHbf-34" vertex="1">
                    <mxGeometry y="50" width="240" height="20" as="geometry"/>
                </mxCell>
                <mxCell id="Ts5cmgJI-xwkf2jEvHbf-64" value="namespace" style="text;html=1;strokeColor=none;fillColor=none;align=left;verticalAlign=middle;spacingLeft=4;spacingRight=4;overflow=hidden;rotatable=0;points=[[0,0.5],[1,0.5]];portConstraint=eastwest;sketch=1;rounded=1;" parent="Ts5cmgJI-xwkf2jEvHbf-34" vertex="1">
                    <mxGeometry y="70" width="240" height="20" as="geometry"/>
                </mxCell>
                <mxCell id="Ts5cmgJI-xwkf2jEvHbf-36" value="*schemas" style="text;html=1;strokeColor=none;fillColor=none;align=left;verticalAlign=middle;spacingLeft=4;spacingRight=4;overflow=hidden;rotatable=0;points=[[0,0.5],[1,0.5]];portConstraint=eastwest;sketch=1;rounded=1;" parent="Ts5cmgJI-xwkf2jEvHbf-34" vertex="1">
                    <mxGeometry y="90" width="240" height="20" as="geometry"/>
                </mxCell>
                <mxCell id="Ts5cmgJI-xwkf2jEvHbf-42" style="edgeStyle=orthogonalEdgeStyle;orthogonalLoop=1;jettySize=auto;html=1;entryX=0.75;entryY=0;entryDx=0;entryDy=0;sketch=1;curved=1;" parent="1" source="Ts5cmgJI-xwkf2jEvHbf-12" target="Ts5cmgJI-xwkf2jEvHbf-34" edge="1">
                    <mxGeometry relative="1" as="geometry"/>
                </mxCell>
                <mxCell id="Ts5cmgJI-xwkf2jEvHbf-43" style="edgeStyle=orthogonalEdgeStyle;orthogonalLoop=1;jettySize=auto;html=1;entryX=0.25;entryY=0;entryDx=0;entryDy=0;sketch=1;curved=1;" parent="1" source="Ts5cmgJI-xwkf2jEvHbf-28" target="Ts5cmgJI-xwkf2jEvHbf-34" edge="1">
                    <mxGeometry relative="1" as="geometry"/>
                </mxCell>
                <mxCell id="Ts5cmgJI-xwkf2jEvHbf-69" value="&lt;b&gt;Schema&lt;br&gt;&lt;/b&gt;" style="swimlane;fontStyle=0;align=center;verticalAlign=top;childLayout=stackLayout;horizontal=1;startSize=30;horizontalStack=0;resizeParent=1;resizeParentMax=0;resizeLast=0;collapsible=0;marginBottom=0;html=1;sketch=1;rounded=1;" parent="1" vertex="1">
                    <mxGeometry x="320" y="380" width="240" height="110" as="geometry"/>
                </mxCell>
                <mxCell id="Ts5cmgJI-xwkf2jEvHbf-70" value="attributes" style="text;html=1;strokeColor=none;fillColor=none;align=center;verticalAlign=middle;spacingLeft=4;spacingRight=4;overflow=hidden;rotatable=0;points=[[0,0.5],[1,0.5]];portConstraint=eastwest;sketch=1;rounded=1;" parent="Ts5cmgJI-xwkf2jEvHbf-69" vertex="1">
                    <mxGeometry y="30" width="240" height="20" as="geometry"/>
                </mxCell>
                <mxCell id="Ts5cmgJI-xwkf2jEvHbf-71" value="version" style="text;html=1;strokeColor=none;fillColor=none;align=left;verticalAlign=middle;spacingLeft=4;spacingRight=4;overflow=hidden;rotatable=0;points=[[0,0.5],[1,0.5]];portConstraint=eastwest;sketch=1;rounded=1;" parent="Ts5cmgJI-xwkf2jEvHbf-69" vertex="1">
                    <mxGeometry y="50" width="240" height="20" as="geometry"/>
                </mxCell>
                <mxCell id="Ts5cmgJI-xwkf2jEvHbf-76" value="plug_definition" style="text;html=1;strokeColor=none;fillColor=none;align=left;verticalAlign=middle;spacingLeft=4;spacingRight=4;overflow=hidden;rotatable=0;points=[[0,0.5],[1,0.5]];portConstraint=eastwest;sketch=1;rounded=1;" parent="Ts5cmgJI-xwkf2jEvHbf-69" vertex="1">
                    <mxGeometry y="70" width="240" height="20" as="geometry"/>
                </mxCell>
                <mxCell id="Ts5cmgJI-xwkf2jEvHbf-103" value="socket_definition" style="text;html=1;strokeColor=none;fillColor=none;align=left;verticalAlign=middle;spacingLeft=4;spacingRight=4;overflow=hidden;rotatable=0;points=[[0,0.5],[1,0.5]];portConstraint=eastwest;sketch=1;rounded=1;" parent="Ts5cmgJI-xwkf2jEvHbf-69" vertex="1">
                    <mxGeometry y="90" width="240" height="20" as="geometry"/>
                </mxCell>
                <mxCell id="Ts5cmgJI-xwkf2jEvHbf-75" style="edgeStyle=orthogonalEdgeStyle;orthogonalLoop=1;jettySize=auto;html=1;entryX=0.5;entryY=0;entryDx=0;entryDy=0;sketch=1;curved=1;" parent="1" source="Ts5cmgJI-xwkf2jEvHbf-36" target="Ts5cmgJI-xwkf2jEvHbf-69" edge="1">
                    <mxGeometry relative="1" as="geometry"/>
                </mxCell>
                <mxCell id="Ts5cmgJI-xwkf2jEvHbf-78" style="edgeStyle=orthogonalEdgeStyle;orthogonalLoop=1;jettySize=auto;html=1;entryX=0.5;entryY=0;entryDx=0;entryDy=0;sketch=1;curved=1;" parent="1" source="Ts5cmgJI-xwkf2jEvHbf-77" target="Ts5cmgJI-xwkf2jEvHbf-26" edge="1">
                    <mxGeometry relative="1" as="geometry"/>
                </mxCell>
            </root>
        </mxGraphModel>
    </diagram>
</mxfile>